<svg id="Layer_5" enable-background="new 0 0 64 64" height="512" viewBox="0 0 64 64" width="512" xmlns="http://www.w3.org/2000/svg"><path d="m63 11.342c0-1.839-1.246-3.435-3.03-3.88l-8.97-2.243v-4.219h-2v5.781l10.485 2.622c.892.222 1.515 1.02 1.515 1.939v8.658h-6v2h1.524c-1.67 4.356-2.524 8.928-2.524 13.616v4.384h-6.604c1.64-2.614 2.604-5.693 2.604-9 0-1.66-.252-3.291-.721-4.865l3.186-3.186c.99-.99 1.536-2.307 1.536-3.707-.001-2.89-2.353-5.242-5.244-5.242-1.4 0-2.717.545-3.707 1.536l-.05.05-.05-.05c-.991-.991-2.307-1.536-3.707-1.536-1.068 0-2.061.325-2.891.876-1.723-.572-3.518-.876-5.352-.876-.678 0-1.343.051-2 .128v-2.786c0-.919.623-1.717 1.515-1.94l10.485-2.621v-5.781h-2v4.219l-8.97 2.243c-1.784.445-3.03 2.041-3.03 3.88v3.153c-7.447 1.806-13 8.511-13 16.505 0 3.561 1.105 6.867 2.984 9.602l-2.484 2.484-1.5-1.5-12.464 12.464c-.991.99-1.536 2.306-1.536 3.708 0 2.89 2.352 5.242 5.243 5.242 1.399 0 2.716-.545 3.707-1.535l12.464-12.465-1.5-1.5 2.484-2.484c2.735 1.879 6.041 2.984 9.602 2.984 5.18 0 9.818-2.335 12.938-6h10.062v-6.384c0-4.699.907-9.275 2.677-13.616h4.323zm-21.757 4.658c.866 0 1.68.337 2.293.95l1.464 1.464 1.464-1.464c.613-.612 1.427-.95 2.293-.95 1.788 0 3.243 1.455 3.243 3.243 0 .866-.337 1.68-.95 2.293l-6.05 6.05-6.05-6.05c-.613-.613-.95-1.427-.95-2.293 0-1.788 1.455-3.243 3.243-3.243zm-5.083 4.471c.223.929.682 1.786 1.375 2.479l6.319 6.319c.038.243.077.485.099.731h-6.419l-2.727-4.091-3.28 7.652-3.233-8.622-3.794 5.061h-2.449c.507-5.598 5.221-10 10.949-10 1.081 0 2.139.164 3.16.471zm-10.66 11.529 2.205-2.939 2.602 6.939h2.352l2.533-5.909 1.273 1.909h7.484c-.507 5.598-5.221 10-10.949 10s-10.442-4.402-10.949-10zm-16.964 28.05c-.613.613-1.428.95-2.293.95-1.788 0-3.243-1.454-3.243-3.242 0-.867.337-1.681.95-2.293l8.05-8.051 4.586 4.586zm9.464-9.464-4.586-4.586 1.586-1.586 4.586 4.586zm1.5-4.5-1.586-1.586 2.315-2.315c.494.563 1.023 1.092 1.586 1.586zm13.5-.086c-8.271 0-15-6.729-15-15s6.729-15 15-15c1.294 0 2.566.168 3.801.49-.353.567-.598 1.203-.713 1.887-1.006-.246-2.039-.377-3.088-.377-7.168 0-13 5.832-13 13s5.832 13 13 13 13-5.832 13-13c0-.499-.038-.996-.095-1.491l1.736-1.736c.231 1.055.359 2.133.359 3.227 0 8.271-6.729 15-15 15z"/></svg>