<?xml version="1.0" encoding="iso-8859-1"?>
<!-- Generator: Adobe Illustrator 16.0.0, SVG Export Plug-In . SVG Version: 6.00 Build 0)  -->
<!DOCTYPE svg PUBLIC "-//W3C//DTD SVG 1.1//EN" "http://www.w3.org/Graphics/SVG/1.1/DTD/svg11.dtd">
<svg version="1.1" id="Capa_1" xmlns="http://www.w3.org/2000/svg" xmlns:xlink="http://www.w3.org/1999/xlink" x="0px" y="0px"
	 width="800px" height="800.001px" viewBox="0 0 800 800.001" style="enable-background:new 0 0 800 800.001;" xml:space="preserve"
	>
<g>
	<path d="M320.704,84.744C320.704,37.934,359.159,0,406.608,0c47.429,0,85.861,37.934,85.861,84.744
		c0,46.832-38.434,84.7-85.861,84.7C359.159,169.444,320.704,131.576,320.704,84.744z M697.917,294.813
		c-8.485-14.323-27.127-19.184-41.635-10.807c-27.854,15.994-68.979,26.888-93.187,4.817c-9.169-8.333-17.11-19.727-25.499-31.792
		c-21.354-30.621-46.788-59.006-83.453-71.029c-13.399-4.383-27.463-6.901-41.567-7.855l22.168,229.623l-31.988,37l-36.566-37
		l27.777-229.883c-8.572,0.304-17.11,1.172-25.542,2.691c-3.884,0.695-7.715,1.541-11.513,2.539
		c-15.311,4.037-31.141,8.42-45.008,16.254c-26.161,14.844-42.036,37.565-56.055,57.661c-8.398,12.066-16.363,23.459-25.51,31.792
		c-24.208,22.07-65.343,11.22-93.186-4.817c-14.519-8.398-33.138-3.516-41.634,10.807c-8.496,14.301-3.581,32.682,10.927,41.037
		c25.759,14.866,57.465,25.716,88.824,25.716c27.062,0,53.885-8.073,76.4-28.624c14.138-12.891,24.403-27.604,34.32-41.819
		c7.855-11.241,15.083-21.289,23.145-29.231c-1.345,25.803-4.503,88.042-7.281,151.844c-0.26,1.411-0.64,2.801-0.748,4.274
		L298.58,732.01c-40.234-11.003-66.048-28.798-66.048-49.327c0-16.146,16.135-31.163,45.519-42.447l1.335-18.272
		c-93.5,15.929-153.57,48.676-153.57,84.027c0,50.977,124.056,94.011,270.898,94.011c146.854,0,270.92-43.034,270.92-94.011
		c0-34.137-56.25-65.93-144.368-82.378v21.419c22.396,10.634,34.311,23.523,34.311,37.651c0,17.447-19.031,33.377-51.573,44.641
		c-5.414-81.1-19.562-292.73-19.965-294.423c-1.791-48.352-7.303-118.989-10.58-158.226c3.95,5.165,7.889,10.59,11.99,16.45
		c9.918,14.214,20.192,28.928,34.32,41.819c22.525,20.551,49.339,28.624,76.41,28.624c31.337,0,63.055-10.851,88.791-25.716
		C701.508,327.496,706.414,309.115,697.917,294.813z M395.084,743.707c-6.163,0-12.218-0.152-18.186-0.391l17.783-248.005
		c2.931-0.78,5.827-1.52,8.333-1.52c2.94,0,5.763,0.521,8.615,0.869l16.265,247.678
		C417.025,743.186,406.077,743.707,395.084,743.707z M598.09,94.813c0-7.4,1.628-14.453,4.861-21.116
		c3.244-6.684,8.191-11.827,14.844-15.43c6.651-3.581,14.54-5.382,23.622-5.382c13.4,0,23.947,3.819,31.651,11.438
		c7.715,7.617,11.578,17.795,11.578,30.491c0,12.782-3.863,22.982-11.578,30.621c-7.704,7.617-18.251,11.437-31.651,11.437
		c-9.082,0-16.971-1.801-23.622-5.403c-6.65-3.581-11.6-8.724-14.844-15.408C599.718,109.375,598.09,102.3,598.09,94.813z
		 M628.765,95.03c0,9.006,1.454,15.539,4.362,19.618c1.888,2.691,4.655,4.037,8.29,4.037c3.646,0,6.369-1.346,8.192-4.037
		c2.907-4.08,4.361-10.612,4.361-19.618c0-8.919-1.454-15.451-4.361-19.596c-1.823-2.626-4.547-3.928-8.192-3.928
		c-3.635,0-6.402,1.302-8.29,3.928C630.219,79.492,628.765,86.046,628.765,95.03z M733.93,52.886H757l-92.438,170.573h-22.818
		L733.93,52.886z M713.456,181.185c0-7.465,1.595-14.54,4.796-21.181c3.212-6.641,8.148-11.784,14.844-15.408
		c6.694-3.624,14.552-5.447,23.578-5.447c13.455,0,24.034,3.841,31.76,11.501c7.704,7.662,11.567,17.84,11.567,30.535
		c0,12.717-3.863,22.895-11.567,30.556c-7.726,7.66-18.305,11.501-31.76,11.501c-9.026,0-16.884-1.823-23.578-5.447
		c-6.694-3.625-11.632-8.768-14.844-15.408C715.05,195.747,713.456,188.672,713.456,181.185z M744.12,181.424
		c0,9.006,1.454,15.538,4.361,19.596c1.822,2.604,4.547,3.928,8.191,3.928c3.624,0,6.402-1.324,8.29-3.928
		c2.908-4.058,4.362-10.59,4.362-19.596c0-9.006-1.454-15.582-4.362-19.727c-1.888-2.604-4.666-3.928-8.29-3.928
		c-3.646,0-6.369,1.346-8.191,4.037C745.574,165.864,744.12,172.417,744.12,181.424z M0,94.813c0-7.4,1.617-14.453,4.85-21.116
		c3.245-6.684,8.192-11.827,14.844-15.43c6.651-3.581,14.54-5.382,23.622-5.382c13.4,0,23.937,3.819,31.651,11.438
		c7.714,7.618,11.578,17.795,11.578,30.491c0,12.782-3.863,22.982-11.578,30.621c-7.715,7.617-18.251,11.437-31.651,11.437
		c-9.082,0-16.971-1.801-23.622-5.403c-6.651-3.581-11.599-8.724-14.844-15.408C1.618,109.375,0,102.3,0,94.813z M30.665,95.03
		c0,9.006,1.454,15.539,4.362,19.618c1.888,2.691,4.666,4.037,8.29,4.037c3.646,0,6.369-1.346,8.192-4.037
		c2.908-4.08,4.373-10.612,4.373-19.618c0-8.919-1.465-15.451-4.373-19.596c-1.823-2.626-4.546-3.928-8.192-3.928
		c-3.624,0-6.402,1.302-8.29,3.928C32.119,79.492,30.665,86.046,30.665,95.03z M135.83,52.886h23.068L66.46,223.459H43.643
		L135.83,52.886z M115.354,181.185c0-7.465,1.595-14.54,4.796-21.181c3.211-6.641,8.148-11.784,14.844-15.408
		c6.695-3.624,14.551-5.447,23.578-5.447c13.455,0,24.035,3.841,31.75,11.501c7.715,7.661,11.578,17.839,11.578,30.534
		c0,12.717-3.863,22.895-11.578,30.556c-7.715,7.66-18.294,11.501-31.75,11.501c-9.027,0-16.883-1.823-23.578-5.447
		c-6.695-3.625-11.632-8.768-14.844-15.408C116.95,195.747,115.354,188.672,115.354,181.185z M146.019,181.424
		c0,9.006,1.454,15.538,4.362,19.596c1.823,2.604,4.546,3.928,8.192,3.928c3.625,0,6.402-1.324,8.29-3.928
		c2.908-4.058,4.362-10.59,4.362-19.596c0-9.006-1.454-15.582-4.362-19.727c-1.888-2.604-4.666-3.928-8.29-3.928
		c-3.646,0-6.369,1.346-8.192,4.037C147.473,165.864,146.019,172.417,146.019,181.424z"/>
</g>
<g>
</g>
<g>
</g>
<g>
</g>
<g>
</g>
<g>
</g>
<g>
</g>
<g>
</g>
<g>
</g>
<g>
</g>
<g>
</g>
<g>
</g>
<g>
</g>
<g>
</g>
<g>
</g>
<g>
</g>
</svg>
