<?xml version="1.0"?>
<svg xmlns="http://www.w3.org/2000/svg" viewBox="0 0 512 512" width="512" height="512"><g id="outline"><rect x="165" y="291.253" width="16" height="17.651" transform="translate(-139.563 150.812) rotate(-34.509)"/><rect x="147.25" y="265.876" width="16" height="16.769" transform="translate(-128.058 136.21) rotate(-34.508)"/><path d="M480,284.728V173.352a26.029,26.029,0,0,0-26-26h-1.54a30.164,30.164,0,0,0-25.731,14.565l-9.179,15.309a20.861,20.861,0,0,1-38.344-6.635,28.976,28.976,0,0,0-18.871-21.643,28.669,28.669,0,0,0-9.465-1.6H301.3a57.888,57.888,0,0,0-28.81,7.7l-5.427,3.123-8.024-14.044a32,32,0,1,0-46.913,41.5,71.827,71.827,0,0,1-44.179-4.191,8,8,0,1,0-6.35,14.685,87.424,87.424,0,0,0,27.507,6.914l-6.091,3.5a104.191,104.191,0,0,1-21.044,8.4l-85.1,23.639A72.414,72.414,0,0,0,24,308.142v25.371a16.382,16.382,0,0,0-3.336,2.541A15.933,15.933,0,0,0,16,347.352a32.036,32.036,0,0,0,32,32H455.61A40.436,40.436,0,0,0,496,338.962v-31.61A24.038,24.038,0,0,0,480,284.728Zm-16,.513-48,13.09V276.19a36.6,36.6,0,0,1,17.311-31.217L464,225.786ZM376.292,195a36.876,36.876,0,0,0,54.979-9.545l9.178-15.307a14.08,14.08,0,0,1,12.011-6.8H454a10.011,10.011,0,0,1,10,10v33.565l-39.169,24.488A52.506,52.506,0,0,0,400,276.19v26.5l-10.9,2.972L306.363,191.113,357.8,165.4a12.91,12.91,0,0,1,5.719,8.327A36.993,36.993,0,0,0,376.292,195Zm-93.471,134.33L212.708,227.352h16.535l70.9,98.167Zm34.347-7.561-72.193-99.963,18.886-9.443,74.013,104.849Zm37.657-8.289L278.337,205.126l.676-.338,12.852-6.421L372.24,309.648ZM280.467,168.917a41.866,41.866,0,0,1,20.833-5.565h24.808l-96,48H206.736Zm-57.15-22.805a15.989,15.989,0,0,1,21.83,5.954l7.938,13.892L239.193,173.9a16,16,0,1,1-15.876-27.784ZM81.151,254l42.373-11.771,13.484,19.613,13.184-9.064L139.827,237.7l26.42-7.339q4.935-1.368,9.753-3.167v.156h17.291l71.358,103.791c-3.7.134-7.411.211-11.1.211H204.208l-10.561-15.361-13.184,9.064,4.329,6.3H40v-23.21A56.364,56.364,0,0,1,81.151,254ZM480,338.962a24.417,24.417,0,0,1-24.39,24.39H48a16.019,16.019,0,0,1-16-16H253.55c8.778,0,17.655-.363,26.382-1.077.359-.029,107.9-23.68,108.033-23.715L472.891,299.4A8.011,8.011,0,0,1,480,307.352Z"/></g></svg>
