<svg id="Layer_1" enable-background="new 0 0 512 512" height="512" viewBox="0 0 512 512" width="512" xmlns="http://www.w3.org/2000/svg"><g><path d="m424.323 361.142c-7.707-5.982-64.577-50.47-114.636-98.913l26.741-26.741c42.345 15.257 89.692 4.721 121.572-27.053 33.489-33.485 43.287-83.952 24.76-127.535-1.354-3.65-3.384-5.636-6.674-5.24-.39.047-.401.01-.775.132-.445.191-.93.432-1.436.739-.981.595-1.737 1.252-2.295 1.823l-48.18 48.183c-24.491 24.489-64.197 24.489-88.688 0l-52.829-52.83c-2.108-2.557-5.889-2.921-8.446-.813-.109.09-.215.183-.317.28l-.02.018c-.594.565-1.067 1.246-1.388 2-14.877 30.265-15.838 65.509-2.632 96.54l-23.223 23.222c-28.585-32.447-48.638-58.336-55.086-66.816 1.769-7.004 2.661-14.201 2.657-21.425-.002-47.896-38.831-86.722-86.728-86.72-5.821 0-11.627.587-17.331 1.75-3.247.66-5.345 3.827-4.685 7.075.017.086.044.167.064.25.208 1.214.787 2.334 1.658 3.205l53.034 53.035-13.976 40.157-40.157 13.975-53.034-53.033c-2.343-2.343-6.142-2.343-8.485 0-.165.179-.319.367-.461.565-.687.781-1.506 1.968-1.74 3.185-9.092 47.073 21.698 92.603 68.771 101.695 12.518 2.418 25.416 2.048 37.775-1.082 8.521 6.49 34.58 26.7 66.828 55.079l-161.384 161.383c-18.102 18.102-18.102 47.451-.001 65.553 18.102 18.102 47.451 18.102 65.554.001l163.1-163.1c35.078 36.314 68.091 74.567 98.884 114.579-.026.755-.055 1.509-.055 2.267.003 36.152 29.308 65.46 65.46 65.468 4.199-.001 8.388-.403 12.51-1.2 1.207-.233 2.312-.833 3.165-1.718.138-.114.285-.209.414-.338 2.342-2.343 2.342-6.141 0-8.484l-38.375-38.376 9.721-27.932 27.932-9.721 38.375 38.375c.758.751 1.704 1.284 2.739 1.543l.054.016c.129.032.255.075.385.1.059.014.116.032.175.045 3.247.66 6.415-1.437 7.075-4.685.816-3.264-7.715-66.787-50.982-77.195-4.403-1.059-9.529-1.655-15.384-1.288zm-145.159-273.181 47.061 47.06c29.176 29.177 76.48 29.178 105.657.002.001-.001.001-.001.002-.002l42.5-42.494c18.669 54.373-10.275 113.586-64.648 132.255s-113.586-10.275-132.255-64.648c-8.065-23.488-7.466-49.086 1.688-72.172zm-4.5 95.159c11.475 20.43 28.85 36.92 49.852 47.313l-23.395 23.394c-.618-.613-1.235-1.227-1.85-1.842-16.488-16.488-31.784-32.839-45.426-48.047zm-220.781-23.576c-14.884-14.873-22.801-35.336-21.8-56.354l47.4 47.4c1.627 1.628 4.041 2.181 6.215 1.425l46.452-16.166c1.733-.604 3.094-1.967 3.695-3.7l16.165-46.449c.756-2.173.203-4.587-1.424-6.214l-47.406-47.4c41.218-1.95 76.213 29.883 78.163 71.102 1.95 41.218-29.883 76.213-71.102 78.163-21.019.994-41.482-6.92-56.362-21.799zm36.762 304.756c-13.47 13.361-35.222 13.273-48.583-.197-13.285-13.393-13.285-34.993 0-48.387l161.886-161.884c15 13.439 31.034 28.433 47.083 44.481.933.933 1.865 1.869 2.795 2.807zm168.871-174.471c-17.629-17.63-35.255-34.006-51.527-48.472-.009-.009-.014-.019-.023-.028-.031-.032-.069-.052-.1-.083-28.844-25.637-53.408-45.252-66.162-55.169 19.792-8.757 35.61-24.574 44.369-44.365 9.865 12.7 29.366 37.125 55.166 66.128.036.038.06.082.1.119.011.01.023.017.033.027 14.652 16.465 31.326 34.4 49.415 52.485 43.806 43.805 96.1 86.34 117.384 103.234-21.389 6.24-38.137 22.928-44.453 44.295-16.066-20.55-55.803-69.772-104.202-118.171zm181.984 101.834-34.227 11.911c-1.732.604-3.093 1.967-3.694 3.7l-11.916 34.226c-.756 2.173-.203 4.587 1.424 6.214l32.254 32.254c-29.522-.649-52.928-25.107-52.279-54.629s25.107-52.928 54.629-52.279c28.613.629 51.657 23.678 52.28 52.291l-32.26-32.259c-1.626-1.627-4.038-2.182-6.211-1.429z"/><path d="m349.07 124.975c2.343 2.343 6.142 2.343 8.485 0l78.15-78.15c2.341-2.345 2.338-6.144-.007-8.485-.584-.583-1.281-1.039-2.049-1.34-26.906-10.533-66.761-19.06-103.837.125-22.384 11.583-33 27.777-33.44 28.461-1.531 2.375-1.198 5.496.8 7.494zm-13.201-77.475c24.274-12.349 52.725-13.178 84.687-2.5l-67.244 67.243-43.939-43.935c7.377-8.612 16.381-15.683 26.496-20.808z"/><path d="m48.887 421.093c-10.047 10.047-10.047 26.337.001 36.383s26.337 10.047 36.383-.001c10.047-10.047 10.047-26.336 0-36.383-10.053-10.031-26.331-10.031-36.384.001zm27.9 27.9c-5.361 5.36-14.052 5.36-19.413-.001-5.36-5.361-5.36-14.052.001-19.413s14.052-5.36 19.413.001c2.574 2.574 4.02 6.066 4.02 9.706.009 3.642-1.44 7.137-4.023 9.705z"/></g></svg>