<svg id="Capa_1" enable-background="new 0 0 509.479 509.479" height="512" viewBox="0 0 509.479 509.479" width="512" xmlns="http://www.w3.org/2000/svg"><g><path d="m130.75 182.442c10.683 0 20.989-2.664 30.192-7.758l100.406 133.279c1.339 1.779 3.01 3.193 4.882 4.231v134.022l-81.749 41.509c-4.764 2.417-7.222 7.734-5.979 12.93 1.243 5.195 5.843 8.824 11.185 8.824h168.088c5.342 0 9.941-3.629 11.185-8.824 1.242-5.195-1.216-10.513-5.979-12.93l-81.75-41.509v-134.022c1.871-1.037 3.542-2.451 4.88-4.229l130.241-172.88c3.56-4.727 4.129-10.952 1.487-16.249-2.64-5.295-7.954-8.584-13.868-8.584h-29.363l4.004-12.218 43.724-22.143c16.463-8.338 23.552-28.466 15.802-44.869-7.135-15.102-23.858-22.532-39.496-18.217-10.056-12.73-27.934-16.633-42.617-8.686-15.953 8.638-22.149 29.058-13.813 45.521l22.145 43.724-5.535 16.888h-111.792c-4.143 0-7.5 3.357-7.5 7.5s3.357 7.5 7.5 7.5h106.876l-12.996 39.657-166.7 2.458-31.119-41.307c-.084-.11-.188-.248-.047-.529.139-.278.309-.278.445-.278h68.54c4.143 0 7.5-3.357 7.5-7.5s-3.357-7.5-7.5-7.5h-19.498c-4.617-30.185-30.48-52.9-61.783-52.9-34.49 0-62.55 28.056-62.55 62.54.002 34.489 28.062 62.549 62.552 62.549zm212.399 312.037h-138.837l69.419-35.248zm12.445-451.616c-4.622-9.126-1.154-20.827 7.572-25.552 2.873-1.557 5.965-2.298 9.011-2.298 6.424 0 12.641 3.3 16.151 9.211 2.417 4.069 7.517 5.745 11.855 3.896 9.334-3.969 20.049.116 24.392 9.311 4.239 8.973.11 20.457-9.017 25.079l-39.806 20.159zm14.098 82.389h34.279c.137 0 .307 0 .445.278.141.281.037.419-.046.529l-28.884 38.34-18.715.276zm-5.637 54.322-89.927 119.367c-.048.064-.149.198-.397.198s-.35-.134-.399-.2l-87.893-116.67zm-233.305-107.222c22.991 0 42.12 16.118 46.553 37.9h-33.813c-5.914 0-11.229 3.289-13.868 8.584-2.642 5.297-2.072 11.522 1.488 16.249l20.683 27.455c-6.498 3.22-13.65 4.901-21.044 4.901-26.219 0-47.55-21.331-47.55-47.55.001-26.213 21.332-47.539 47.551-47.539z"/></g></svg>