<svg id="Capa_1" enable-background="new 0 0 512 512" height="512" viewBox="0 0 512 512" width="512" xmlns="http://www.w3.org/2000/svg"><g><path d="m395.022 283.092c2.928-2.93 2.926-7.679-.004-10.607-2.93-2.927-7.679-2.926-10.607.004-2.322 2.324-5.412 3.604-8.702 3.604-3.289 0-6.38-1.28-8.702-3.604-2.928-2.93-7.677-2.932-10.607-.004s-2.932 7.677-.004 10.607c5.156 5.16 12.014 8.001 19.313 8.001s14.158-2.841 19.313-8.001z"/><path d="m355.68 233.174c-7.546-7.279-19.823-7.278-27.369 0-2.981 2.875-3.067 7.623-.191 10.604 2.875 2.982 7.623 3.066 10.604.191 1.773-1.709 4.769-1.71 6.543 0 1.455 1.404 3.331 2.102 5.205 2.102 1.965 0 3.927-.768 5.399-2.293 2.876-2.98 2.79-7.728-.191-10.604z"/><path d="m406.152 243.97c1.781-1.718 4.79-1.718 6.571 0 1.455 1.404 3.331 2.102 5.205 2.102 1.965 0 3.927-.768 5.399-2.293 2.876-2.981 2.79-7.729-.191-10.604-7.553-7.286-19.844-7.286-27.397 0-2.981 2.875-3.067 7.623-.191 10.604 2.875 2.981 7.623 3.066 10.604.191z"/><path d="m234.943 388.153c4.142 0 7.5-3.358 7.5-7.5v-4.772c0-4.142-3.358-7.5-7.5-7.5s-7.5 3.358-7.5 7.5v4.772c0 4.142 3.358 7.5 7.5 7.5z"/><path d="m277.431 388.153c4.142 0 7.5-3.358 7.5-7.5v-4.772c0-4.142-3.358-7.5-7.5-7.5s-7.5 3.358-7.5 7.5v4.772c.001 4.142 3.358 7.5 7.5 7.5z"/><path d="m511.786 458.5-8.97-69.398c-1.4-10.89-4.73-20.48-9.92-28.499-2.25-3.48-6.89-4.48-10.37-2.23s-4.48 6.89-2.23 10.37c4.02 6.21 6.51 13.49 7.64 22.28l8.77 67.858h-51.021v-31.864c0-4.142-3.358-7.5-7.5-7.5s-7.5 3.358-7.5 7.5v31.864h-95.375c-7.88-12.33-21.88-17.51-34.469-21.07-.1-.03-.2-.06-.29-.08-1.97-.56-3.91-1.07-5.77-1.57-1.21-.32-2.4-.64-3.56-.96-1.36-.37-2.49-2.21-3.38-4.15 18.28-12.57 31.849-33.939 31.849-52.599v-16.91c0-6.9-.72-13.45-2.15-19.6 2.45-.68 8.98-2.42 9.79-2.63l34.209 23.179c3.59 2.66 8.39 5.63 14.17 5.61 5.74.07 10.58-2.95 14.17-5.61l34.219-23.189c.67.19 1.36.37 2.04.55 10.4 2.76 21.159 5.61 30.739 9.99 3.77 1.71 8.22.05 9.94-3.71 1.72-3.77.06-8.22-3.71-9.94-10.74-4.9-22.119-7.92-33.119-10.84-1.755-.47-3.507-.954-5.259-1.432-4.05-1.105-6.504-6.204-8.191-10.521 26.89-17.424 47.148-48.397 47.148-75.308v-58.758c0-30.178-22.829-57.448-58.158-69.473-14.805-5.04-30.487-6.711-44.15-4.707-14.26 2.091-25.967 7.979-34.072 17.097-16.54 2.596-40.575 15.406-39.756 68.052.008.504.015 47.789.015 47.789 0 26.9 20.337 57.89 47.323 75.327-1.689 4.323-4.145 9.396-8.197 10.503-.193.053-.379.119-.564.185-1.68.449-10.605 2.827-13.435 3.617-3.14-6.72-7.31-12.73-12.47-17.9-11.39-11.44-26.729-17.89-43.179-18.16h-.24c-16.46.27-31.799 6.72-43.199 18.16-5.99 6.01-10.63 13.17-13.89 21.25-5.99-2.03-20.41-5.97-20.41-5.97-4.11-1.12-6.56-6.43-8.24-10.78 20.01-15.23 34.479-39.119 34.479-60.109v-20.58c0-3.94-3.05-7.21-6.98-7.49-11.04-.77-15.19-5.02-19.59-9.51-4.8-4.9-11.37-11.61-24.779-8.14-3.5.9-6.48 1.69-9.05 2.38-7.49 2-11.25 3-14.36 3-3.12 0-6.88-1-14.37-3-2.57-.69-5.54-1.48-9.04-2.38-13.44-3.46-20.01 3.25-24.809 8.15-4.4 4.49-8.55 8.73-19.57 9.5-3.93.28-6.97 3.55-6.97 7.49v20.58c0 20.98 14.46 44.879 34.469 60.109-1.67 4.36-4.12 9.66-8.24 10.78l-2.1.58c-17.18 4.67-35.719 9.72-49.239 22.869-3.24-1.05-14.18-3.42-15.25-3.68.5-1.08 1.39-2.7 2.94-4.99 16.71-24.669 23.529-60.499 23.529-123.677 0-33.319 14.33-55.519 28.229-57.739.21-.03.42-.06.62-.09 2.03-.28 6.8-.94 9.43-5.99 9.15-17.61 35.359-27.449 63.749-23.939 28.449 3.52 62.279 21.71 71.878 62.199 1.69 7.21 2.74 15.1 3.39 25.569 0 16.87.3 36.709 2.44 56.129.46 4.12 4.16 7.09 8.28 6.63 4.12-.45 7.09-4.16 6.63-8.27-2.07-18.79-2.35-38.209-2.35-54.719 0-.15-.01-.31-.02-.46-.7-11.46-1.86-20.19-3.77-28.319-11.38-47.989-51.179-69.508-84.638-73.648-34.099-4.22-65.069 7.83-77.898 30.079-.05.01-.1.02-.15.03-23.66 3.78-40.819 34.289-40.819 72.538 0 59.909-6.07 93.298-20.94 115.257-4.14 6.11-8.01 13.24-5.29 19.85 2.68 6.52 9.62 7.89 15.2 8.98l1.07.22c1.37.27 2.66.55 3.89.85-4.27 7.52-7.39 16.8-8.88 28.389l-8.86 68.798c-.4 3.12-.58 7.68 2.6 11.29 3.54 4.04 8.99 4.04 11.05 4.04h155.967c-.46 2.79-.71 5.81-.71 9.07v14.6c0 6.59 5.36 11.96 11.96 11.96h145.428c6.6 0 11.96-5.37 11.96-11.96v-14.6c0-3.26-.24-6.28-.71-9.07h157.186c3.52 0 7.96-.46 11.11-4.05 3.19-3.619 3.02-8.199 2.62-11.329zm-130.447-108.338c-.09.06-.18.12-.27.19-3.06 2.27-4.55 2.75-5.26 2.75h-.1c-.04 0-.07.01-.1 0-.71 0-2.2-.48-5.26-2.75-.09-.07-.17-.13-.27-.19l-28.138-19.071c2.857-3.311 4.808-7.127 6.216-10.481 1.584.699 3.177 1.366 4.786 1.963 8.339 3.093 15.578 4.534 22.78 4.534 7.215 0 14.448-1.442 22.752-4.534 1.612-.598 3.208-1.267 4.795-1.969 1.406 3.349 3.356 7.168 6.212 10.483zm-49.502-213.363c2.088-.185 4.003-1.234 5.282-2.895 8.027-10.425 21.524-14.59 35.827-14.59 9.339 0 19.024 1.776 27.748 4.746 22.139 7.535 47.992 26.533 47.992 55.273v30.844h-7.142c-11.964 0-19.435-7.008-28.894-15.88-11.409-10.701-24.341-22.831-47.449-22.831h-25.504c-20.303 0-23.645 16.326-25.857 27.129-2.352 11.486-3.987 16.214-11.275 17.254 0 0-.007-25.181-.017-25.781-.36-23.087 4.43-51.07 29.289-53.269zm-29.273 101.293v-7.178c20.319-1.767 23.699-18.215 25.97-29.31 2.512-12.269 3.843-15.137 11.162-15.137h25.504c17.174 0 26.895 9.118 37.187 18.772 9.964 9.346 21.258 19.939 39.156 19.939h7.142v12.914c0 26.557-25.901 59.463-55.436 70.422-6.585 2.452-12.155 3.594-17.526 3.594-5.366 0-10.947-1.143-17.563-3.598-29.617-10.989-55.596-43.895-55.596-70.418zm-90.351 102.581c7.31-22.789 26.539-33.659 44.709-34.009 15.77.3 32.349 8.53 41.219 25.589 2.17 4.18 3.89 8.88 5.01 14.13.39 1.79.71 3.65.95 5.57-2.13-1.06-3.72-2.43-5.25-3.95-.45-.44-.9-.89-1.36-1.36-3.22-3.28-7.34-7.49-14.45-7.86-3.121-.189-6.217.457-9.216 1.256-3.004.8-5.988 1.675-8.997 2.459-3.198.834-6.478 1.783-9.811 1.338-4.765-.636-9.455-2.257-14.091-3.479-4.979-1.313-9.974-2.394-14.994-.633-3.845 1.349-6.803 4.071-9.601 6.929-2 2.04-3.85 3.93-6.59 5.3.302-2.421.887-6.565 2.472-11.28zm-3.06 27.299c9.49-2.26 14.43-7.28 17.9-10.83 1.122-1.148 2.434-2.891 4.072-3.326 1.667-.443 3.735.451 5.312.867 4.513 1.19 9.005 2.528 13.574 3.486 3.697.776 7.398 1.021 11.149.478 4.372-.633 8.647-1.952 12.908-3.085 1.338-.356 2.677-.71 4.016-1.061 1.17-.306 2.397-.739 3.615-.78 2.156-.071 3.711 2.026 5.071 3.42 3.48 3.54 8.42 8.57 17.92 10.83v10.48c0 17.07-17.42 39.079-36.559 46.169-3.39 1.26-6.37 2-9.28 2.22-4.21.34-8.27-.4-13.18-2.23-.53-.2-1.05-.4-1.58-.62-18.48-7.67-34.939-28.929-34.939-45.539v-10.479zm72.019 78.638-20.57 12.08c-.09.06-.19.11-.28.17-.01.01-.02.01-.03.02-3.31 2.14-3.45 2.14-6.82-.03-.09-.05-.17-.1-.26-.16l-12.64-7.42-7.93-4.65c3.06-2.39 5.11-5.55 6.54-8.45.42.17.84.35 1.27.51.56.21 1.12.41 1.67.6 5.19 1.77 9.98 2.66 14.78 2.66h.01c5.3 0 10.6-1.09 16.44-3.26.43-.16.85-.34 1.28-.51 1.43 2.9 3.48 6.06 6.54 8.44zm-210.146-192.395v-14.05c11.95-2.5 18.02-8.7 22.25-13.03 4.29-4.38 5.32-5.42 10.36-4.11 3.45.88 6.38 1.66 8.92 2.34 8.48 2.26 13.15 3.51 18.23 3.51s9.75-1.25 18.23-3.51c2.53-.68 5.46-1.46 8.92-2.35 5.02-1.29 6.04-.26 10.32 4.12 4.24 4.32 10.32 10.53 22.289 13.03v14.05c0 21.73-21.279 48.699-45.529 57.709-5.37 2-9.9 2.92-14.23 2.92-4.36 0-8.89-.92-14.26-2.91-24.24-9.021-45.5-35.99-45.5-57.719zm93.048 78.048-27.849 18.86c-.09.06-.18.13-.27.19-4.83 3.6-5.51 3.6-10.34 0-.09-.06-.18-.13-.28-.19l-27.839-18.86c2.65-3.09 4.5-6.61 5.87-9.79 2.6 1.34 5.25 2.52 7.94 3.52 7.1 2.63 13.29 3.85 19.48 3.85 6.17 0 12.35-1.22 19.45-3.85 2.7-1.01 5.35-2.19 7.96-3.52 1.368 3.17 3.218 6.7 5.878 9.79zm14.45 126.617h-101.208v-31.869c0-4.14-3.36-7.5-7.5-7.5s-7.5 3.36-7.5 7.5v31.869h-43.908l8.66-67.219c1.66-12.87 5.49-22.039 10.99-28.869.42-.38.78-.81 1.11-1.29 10.25-11.7 25.779-16.13 43.709-21.02l33.919 22.97c5.03 3.72 9.51 5.57 13.99 5.57s8.96-1.85 13.99-5.57l33.909-22.97c5.88 1.61 11.52 3.17 16.89 5.02-.93 5.1-1.42 10.45-1.42 16.04v16.91c0 18.67 13.56 40.029 31.819 52.599-.89 1.94-2.01 3.77-3.36 4.15-1.19.32-2.39.64-3.6.97-1.86.49-3.77 1-5.73 1.55-.12.04-.25.07-.37.11-12.571 3.559-26.52 8.759-34.39 21.049zm148.057 35.629h-139.347v-11.56c0-18.27 9.98-24.619 26.889-29.809l27.859 16.36c1.39 1.73 3.54 3.21 6.8 3.92 2.83 1.38 5.49 2.07 8.14 2.07 2.33 0 4.67-.54 7.12-1.61 1.39-.6 2.81-1.38 4.28-2.33l21.58-12.67 9.81-5.76c5.53 1.67 10.33 3.46 14.27 5.76 5.87 3.41 9.86 7.96 11.61 15 .65 2.65.99 5.65.99 9.07v11.559z"/><path d="m117.013 294.583c3.996 4 9.304 6.202 14.95 6.202h.028c5.642-.007 10.94-2.215 14.916-6.215 2.919-2.938 2.905-7.687-.033-10.607-2.939-2.919-7.687-2.905-10.606.033-1.145 1.152-2.671 1.788-4.297 1.79-.003 0-.005 0-.008 0-1.636 0-3.177-.641-4.339-1.804-2.928-2.931-7.676-2.932-10.606-.005-2.93 2.928-2.933 7.676-.005 10.606z"/><path d="m97.068 256.663c1.545-1.497 4.154-1.497 5.699 0 1.457 1.412 3.338 2.114 5.218 2.114 1.959 0 3.916-.763 5.387-2.281 2.883-2.974 2.808-7.722-.166-10.605-7.327-7.1-19.249-7.1-26.576 0-2.975 2.882-3.049 7.631-.166 10.605 2.882 2.975 7.629 3.051 10.604.167z"/><path d="m161.167 256.664c1.541-1.495 4.131-1.502 5.654-.017 1.458 1.422 3.348 2.13 5.236 2.13 1.951 0 3.9-.757 5.37-2.264 2.892-2.965 2.832-7.714-.133-10.606-7.305-7.124-19.222-7.131-26.565-.017-2.975 2.883-3.049 7.631-.167 10.605 2.882 2.976 7.63 3.051 10.605.169z"/><path d="m186.384 81.628 51.233 50.823c.208.207.428.4.658.581l.577.453c2.145 1.692 4.364 3.442 7.726 3.538.072.002.143.003.215.003.074 0 .147-.001.221-.003 3.331-.098 5.541-1.842 7.679-3.528l.589-.463c.23-.181.45-.375.658-.581l51.233-50.823c.039-.039.077-.078.115-.118 17.954-18.603 17.956-48.897-.001-67.538-15.396-15.944-41.282-15.182-60.495 1.657-19.244-16.833-45.138-17.592-60.528-1.651-17.951 18.634-17.949 48.928.005 67.531.038.041.077.08.115.119zm10.677-57.236c11.183-11.583 29.118-7.133 40.292 2.915.754.685 1.363 1.266 1.864 1.744 1.902 1.815 4.058 3.872 7.576 3.872 3.502 0 5.604-2.004 7.459-3.773.514-.49 1.148-1.095 1.962-1.826 11.177-10.069 29.094-14.519 40.276-2.938 12.401 12.873 12.421 33.784.058 46.654l-49.77 49.372-49.77-49.372c-12.363-12.87-12.342-33.782.053-46.648z"/></g></svg>