<svg height="496pt" viewBox="0 0 496 496" width="496pt" xmlns="http://www.w3.org/2000/svg"><path d="m456 256h-24.886719c-4.394531-4.296875-9.503906-7.839844-15.113281-10.519531v-98.144531c0-8.65625-2.046875-17.3125-5.910156-25.046876l-26.089844-52.175781v-22.113281h16v-24c0-13.230469-10.769531-24-24-24h-64c-13.230469 0-24 10.769531-24 24v24h16v22.113281l-26.089844 52.167969c-3.863281 7.734375-5.910156 16.398438-5.910156 25.054688v98.152343c-9.992188 4.769531-18.335938 12.382813-24 21.824219-5.664062-9.441406-14.007812-17.054688-24-21.824219v-96.230469c0-30.203124-11.335938-58.65625-32-80.496093v-20.761719c8.824219 0 16-7.175781 16-16v-16c0-8.824219-7.175781-16-16-16h-80c-8.824219 0-16 7.175781-16 16v16c0 8.824219 7.175781 16 16 16v20.753906c-20.664062 21.839844-32 50.292969-32 80.492188v96.226562c-5.609375 2.6875-10.71875 6.230469-15.113281 10.527344h-24.886719c-22.054688 0-40 17.945312-40 40v16c0 22.054688 17.945312 40 40 40h16.878906l25.648438 112.863281c4.175781 18.335938 20.214844 31.136719 39.015625 31.136719h252.90625c18.808593 0 34.839843-12.800781 39.015625-31.136719l25.648437-112.863281h16.886719c22.054688 0 40-17.945312 40-40v-16c0-22.054688-17.945312-40-40-40zm-360.886719 192-3.640625-16h313.046875l-3.632812 16zm-30.121093-132.527344c-.65625-2.886718-.992188-5.871094-.992188-8.855468v-2.617188h368v2.617188c0 2.992187-.335938 5.96875-1 8.863281l-1.023438 4.519531h-363.953124zm191.007812 100.527344v-80h74.34375l-18.183594 80zm-73.351562 0-18.175782-80h75.527344v80zm-34.59375-80 18.175781 80h-78.390625l-18.183594-80zm180.519531 80 18.1875-80h79.582031l-18.183594 80zm102.617187-128h-78.382812c3.71875-18.230469 19.871094-32 39.191406-32s35.472656 13.769531 39.191406 32zm-127.191406-264c0-4.40625 3.585938-8 8-8h64c4.414062 0 8 3.59375 8 8v8h-80zm16 49.886719v-25.886719h48v25.886719l27.777344 55.554687c2.261718 4.527344 3.597656 9.511719 4.03125 14.558594h-111.617188c.425782-5.046875 1.761719-10.023438 4.03125-14.558594zm-32 86.113281h112v80.640625c-2.625-.375-5.28125-.640625-8-.640625-20.382812 0-38.199219 10.984375-48 27.304688-9.800781-16.320313-27.617188-27.304688-48-27.304688-2.71875 0-5.375.265625-8 .640625zm8 96c19.3125 0 35.472656 13.769531 39.191406 32h-78.382812c3.71875-18.230469 19.878906-32 39.191406-32zm-56.808594 32h-78.382812c3.71875-18.230469 19.871094-32 39.191406-32s35.472656 13.769531 39.191406 32zm-95.191406-256v-16h16v16zm48.007812 0h-16.007812v-16h16zm-80.007812-16h16v16h-16zm13.65625 61.65625 2.34375-2.34375v-27.3125h48v27.3125l2.34375 2.34375c5.601562 5.601562 10.359375 11.785156 14.441406 18.34375h-81.570312c4.082031-6.558594 8.839844-12.742188 14.441406-18.34375zm-22.542969 34.34375h97.773438c4.632812 11.710938 7.113281 24.28125 7.113281 37.257812v42.742188h-112v-42.742188c0-12.976562 2.480469-25.546874 7.113281-37.257812zm-7.113281 96h112v32.640625c-2.625-.375-5.28125-.640625-8-.640625-20.382812 0-38.199219 10.984375-48 27.304688-9.800781-16.320313-27.617188-27.304688-48-27.304688-2.71875 0-5.375.265625-8 .640625zm8 48c19.3125 0 35.472656 13.769531 39.191406 32h-78.382812c3.71875-18.230469 19.878906-32 39.191406-32zm-64 80c-13.230469 0-24-10.769531-24-24v-16c0-13.230469 10.769531-24 24-24h13.480469c-3.472657 7.289062-5.480469 15.398438-5.480469 24v10.617188c0 4.183593.472656 8.359374 1.390625 12.414062l3.855469 16.96875zm334.457031 144h-252.914062c-10.328125 0-19.199219-6.472656-22.550781-16h298.015624c-3.359374 9.527344-12.222656 16-22.550781 16zm105.542969-168c0 13.230469-10.769531 24-24 24h-13.257812l3.859374-16.96875c.925782-4.054688 1.398438-8.230469 1.398438-12.414062v-10.617188c0-8.601562-2.007812-16.710938-5.480469-24h13.480469c13.230469 0 24 10.769531 24 24zm0 0"/><path d="m304 176h80v16h-80zm0 0"/><path d="m304 208h80v16h-80zm0 0"/><path d="m112 128h80v16h-80zm0 0"/><path d="m112 160h80v16h-80zm0 0"/></svg>