<svg id="Layer_1" enable-background="new 0 0 512 512" height="512" viewBox="0 0 512 512" width="512" xmlns="http://www.w3.org/2000/svg"><g><path d="m256 0c-93.564 0-179.646 51.021-224.651 133.151-1.991 3.633-.66 8.191 2.973 10.182 3.632 1.992 8.191.659 10.181-2.973 6.473-11.813 13.854-22.939 22.019-33.318 25.176 6.954 50.783 12.528 76.612 16.68-4.685 15.288-8.559 31.607-11.557 48.758-14.774 21.938-23.905 47.977-25.293 76.019h-91.156c.803-26.368 5.827-52.141 14.993-76.714 1.448-3.881-.525-8.2-4.406-9.648-3.88-1.446-8.201.524-9.648 4.406-10.661 28.582-16.067 58.68-16.067 89.457 0 138.953 114.924 256 256 256 139.022 0 256-116.145 256-256 0-141.987-115.026-256-256-256zm189.482 107.041c31.863 40.367 49.813 89.501 51.391 141.459h-91.156c-1.389-28.042-10.519-54.08-25.293-76.019-2.998-17.151-6.872-33.468-11.556-48.755 25.806-4.153 51.413-9.73 76.614-16.685zm-19.069-21.454c2.877 2.877 5.67 5.814 8.383 8.808-23.285 6.178-46.906 11.153-70.693 14.897-7.961-22.377-17.763-42.197-29.15-58.765-8.281-12.05-17.174-22.019-26.531-29.836 44.36 9.792 85.094 31.999 117.991 64.896zm-66.432 62.543c-7.725-7.449-16.245-14.076-25.419-19.745 6.418-.716 12.831-1.501 19.232-2.391 2.255 7.155 4.314 14.554 6.187 22.136zm-96.481-132.607c16.137 2.212 37.613 12.248 59.092 43.5 10.03 14.594 18.908 32.422 26.276 52.498-13.295 1.793-26.63 3.202-39.974 4.22-14.233-5.386-29.49-8.671-45.394-9.458zm-15 0v90.76c-15.896.787-31.143 4.069-45.37 9.449-13.358-1.019-26.7-2.426-39.996-4.218 7.368-20.073 16.245-37.899 26.274-52.492 21.479-31.251 42.955-41.287 59.092-43.499zm-71.05 112.854c-9.179 5.67-17.703 12.3-25.431 19.753 1.873-7.584 3.933-14.985 6.188-22.142 6.404.89 12.821 1.674 19.243 2.389zm-100.258-33.983c33.444-36.979 77.59-62.735 126.271-73.606-9.315 7.802-18.17 17.738-26.417 29.739-11.386 16.567-21.187 36.385-29.148 58.761-23.812-3.743-47.438-8.717-70.706-14.894zm-10.674 310.565c-31.864-40.367-49.813-89.5-51.391-141.459h91.157c1.389 28.042 10.519 54.081 25.293 76.019 2.998 17.151 6.872 33.47 11.557 48.758-25.831 4.153-51.439 9.728-76.616 16.682zm19.069 21.454c-2.877-2.877-5.672-5.816-8.384-8.81 23.265-6.176 46.887-11.148 70.695-14.891 7.961 22.376 17.762 42.194 29.148 58.761 8.281 12.05 17.175 22.019 26.531 29.835-44.358-9.791-85.093-31.998-117.99-64.895zm66.432-62.543c7.728 7.453 16.252 14.083 25.431 19.753-6.423.716-12.839 1.5-19.243 2.389-2.255-7.158-4.315-14.558-6.188-22.142zm96.481 132.607c-16.137-2.212-37.613-12.248-59.091-43.5-10.029-14.592-18.906-32.418-26.274-52.492 13.296-1.791 26.638-3.198 39.996-4.218 14.226 5.38 29.474 8.662 45.37 9.449v90.761zm7.438-105.573c-74.387-.034-134.875-60.583-134.841-134.965.034-74.338 60.504-134.808 134.841-134.842 74.411-.034 135.848 59.842 134.965 134.842-.878 74.718-59.395 134.999-134.965 134.965zm104.043-27.034c-1.872 7.582-3.932 14.981-6.186 22.136-6.402-.891-12.815-1.675-19.232-2.391 9.173-5.668 17.693-12.296 25.418-19.745zm-96.481 132.607v-90.76c15.905-.788 31.161-4.073 45.394-9.458 13.344 1.019 26.678 2.427 39.974 4.22-7.368 20.076-16.246 37.904-26.276 52.498-21.479 31.252-42.955 41.288-59.092 43.5zm162.913-70.064c-32.897 32.897-73.631 55.104-117.991 64.895 9.357-7.817 18.25-17.785 26.531-29.835 11.387-16.568 21.189-36.387 29.15-58.765 23.787 3.744 47.408 8.719 70.693 14.897-2.713 2.994-5.506 5.931-8.383 8.808zm19.069-21.454c-25.2-6.956-50.808-12.532-76.615-16.685 4.684-15.288 8.558-31.605 11.556-48.755 14.774-21.938 23.905-47.977 25.293-76.019h91.156c-1.577 51.958-19.527 101.092-51.39 141.459zm-72.813-111.409c0-9.777-6.271-18.114-15-21.21v-37.124c0-4.222-2.492-8.062-6.349-9.78l-36.038-16.067c-3.781-1.69-8.217.013-9.903 3.796-1.688 3.783.013 8.217 3.796 9.903l27.247 12.148-29.197 13.017c-.049.02-.096.043-.144.064l-58.581 26.118-58.594-26.124c-.042-.018-.083-.038-.126-.056l-29.202-13.019 87.921-39.199 29.573 13.185c3.783 1.691 8.217-.012 9.903-3.796 1.688-3.783-.013-8.217-3.796-9.903l-31.317-13.963c-2.773-1.238-5.954-1.237-8.724-.001l-98.459 43.896c-3.857 1.72-6.349 5.559-6.349 9.781s2.492 8.062 6.348 9.78l33.722 15.034v61.85c0 6.058 3.835 11.5 9.545 13.542 15.474 5.534 29.357 10.8 58.343 10.948 27.712.141 46.199-5.757 60.75-10.945 5.719-2.039 9.562-7.486 9.562-13.555v-61.84l25.069-11.177v23.486c-8.729 3.096-15 11.433-15 21.21 0 12.406 10.094 22.5 22.5 22.5s22.5-10.093 22.5-22.499zm-70.069 27.888-.088.031c-14.521 5.169-28.213 10.022-55.144 9.9-25.595-.13-38.675-4.812-52.523-9.768l-.445-.159v-54.726l49.737 22.175c2.772 1.238 5.953 1.238 8.724.001l49.739-22.176zm47.569-20.388c-4.136 0-7.5-3.364-7.5-7.5s3.364-7.5 7.5-7.5 7.5 3.364 7.5 7.5-3.364 7.5-7.5 7.5z"/></g></svg>