<svg id="Capa_1" enable-background="new 0 0 512 512" height="512" viewBox="0 0 512 512" width="512" xmlns="http://www.w3.org/2000/svg"><g><g><g><path d="m385.39 308.59c-4.169 0-8.009-2.705-9.405-6.631-1.377-3.873-.212-8.327 2.936-10.99 3.282-2.777 8.093-3.122 11.745-.864 3.5 2.164 5.34 6.399 4.534 10.436-.921 4.613-5.101 8.049-9.81 8.049z"/></g><path d="m482.698 99.475h-108.617c11.528-11.868 18.636-28.051 18.636-45.863v-31.577c0-5.523-4.478-10-10-10h-70.822c-23.548 0-44.248 12.421-55.895 31.055-11.646-18.634-32.347-31.055-55.894-31.055h-70.823c-5.523 0-10 4.477-10 10v31.577c0 17.812 7.108 33.996 18.636 45.863h-108.618c-16.156 0-29.301 13.144-29.301 29.301v67.776c0 5.523 4.477 10 10 10h15.062v257.122c0 20.011 16.28 36.291 36.291 36.291h389.294c20.011 0 36.29-16.28 36.29-36.291v-257.122h15.063c5.522 0 10-4.477 10-10v-67.776c0-16.157-13.145-29.301-29.302-29.301zm-216.667-21.577c0-25.289 20.574-45.863 45.863-45.863h60.822v21.577c0 25.289-20.574 45.863-45.863 45.863h-60.822zm14.742 210.692h-49.546v-82.038h49.546zm16.746-102.038h-83.037v-67.078h83.037zm-158.236-132.941v-21.576h60.823c25.289 0 45.863 20.574 45.863 45.863v21.577h-60.823c-25.289 0-45.863-20.575-45.863-45.864zm-119.283 75.165c0-5.129 4.172-9.301 9.301-9.301h165.181v67.078h-174.482zm191.227 77.776v82.038h-166.165v-82.038zm-166.165 257.122v-85.174h166.165v101.465h-149.874c-8.983 0-16.291-7.308-16.291-16.291zm235.711 16.023h-49.546v-101.197h49.546zm169.874.268h-149.874v-101.465h166.164v85.174c.001 8.983-7.307 16.291-16.29 16.291zm16.291-191.375h-36.154c-5.522 0-10 4.477-10 10s4.478 10 10 10h36.154v49.91h-421.876v-49.91h295.308c5.522 0 10-4.477 10-10s-4.478-10-10-10h-39.597v-82.038h166.164v82.038zm25.062-102.038h-174.481v-67.078h165.18c5.129 0 9.302 4.172 9.302 9.301v57.777z"/></g></g></svg>