<svg id="Capa_1" enable-background="new 0 0 512 512" height="512" viewBox="0 0 512 512" width="512" xmlns="http://www.w3.org/2000/svg"><g><path d="m442.581 282.135c4.143 0 7.5-3.357 7.5-7.5v-42.333c0-11.947-5.463-22.936-14.99-30.148-9.525-7.211-21.586-9.486-33.082-6.245l-34.202 9.645c-.977-4.573-2.018-9.14-3.125-13.698-2.672-10.999-12.443-18.682-23.762-18.682h-154.867c-4.143 0-7.5 3.357-7.5 7.5s3.357 7.5 7.5 7.5h154.867c4.375 0 8.152 2.97 9.186 7.223 8.365 34.438 12.919 69.356 13.536 103.782.838 46.71-23.961 89.912-65.887 112.527h-119.057c-41.525-22.399-66.733-65.341-65.887-112.527.617-34.426 5.171-69.344 13.536-103.782 1.033-4.253 4.81-7.223 9.185-7.223h20.533c4.143 0 7.5-3.357 7.5-7.5s-3.357-7.5-7.5-7.5h-20.533c-11.318 0-21.089 7.683-23.761 18.682-8.625 35.51-13.321 71.527-13.958 107.054-.477 26.583 6.538 52.588 20.286 75.205 8.811 14.496 20.136 27.201 33.355 37.592h-78.57c-6.046 0-10.965 4.918-10.965 10.964v17.515c0 19.577 15.928 35.505 35.506 35.505h14.205c3.866 0 7.443 1.752 9.813 4.805l4.202 5.413c12.875 16.58 32.3 26.091 53.295 26.091h68.929c4.143 0 7.5-3.357 7.5-7.5s-3.357-7.5-7.5-7.5h-68.929c-16.328 0-31.435-7.396-41.446-20.292l-4.202-5.413c-5.233-6.74-13.129-10.606-21.662-10.606h-14.205c-11.307 0-20.506-9.198-20.506-20.505v-13.479h322.614v13.479c0 11.307-9.198 20.505-20.505 20.505h-14.205c-8.533 0-16.429 3.866-21.662 10.606l-4.202 5.412c-10.013 12.897-25.119 20.293-41.446 20.293h-19.657c-4.143 0-7.5 3.357-7.5 7.5s3.357 7.5 7.5 7.5h19.657c20.995 0 40.42-9.511 53.294-26.094l4.202-5.412c2.371-3.054 5.948-4.806 9.814-4.806h14.205c19.577 0 35.505-15.928 35.505-35.505v-17.515c0-6.046-4.918-10.964-10.964-10.964h-78.571c13.22-10.391 24.544-23.096 33.355-37.592 4.371-7.19 8.054-14.726 11.04-22.51l22.795 14.289c11.883 7.448 26.606 7.564 38.391 1.044 12.029-6.658 19.502-19.335 19.502-33.083v-29.23c0-4.143-3.357-7.5-7.5-7.5s-7.5 3.357-7.5 7.5v29.23c0 8.294-4.509 15.942-11.765 19.959-7.098 3.928-15.987 3.868-23.161-.629l-26.039-16.322c1.798-6.896 3.064-13.934 3.793-21.06l25.829 16.189c2.289 1.436 5.206 1.541 7.615.208 2.387-1.321 3.868-3.834 3.868-6.562v-87.325c0-2.349-1.101-4.562-2.973-5.979-1.873-1.418-4.301-1.874-6.562-1.239l-31.762 8.956c-.931-6.582-1.999-13.161-3.199-19.732l35.354-9.969c6.939-1.956 14.213-.583 19.958 3.767 5.747 4.352 9.044 10.981 9.044 18.189v42.333c0 4.141 3.357 7.499 7.5 7.499zm-42.359-33.918v63.865l-21.591-13.532c-.27-14.426-1.218-28.932-2.817-43.451z"/><path d="m312.894 453.339c0-4.143-3.357-7.5-7.5-7.5h-134.334c-4.143 0-7.5 3.357-7.5 7.5s3.357 7.5 7.5 7.5h134.334c4.142 0 7.5-3.358 7.5-7.5z"/><path d="m249.067 66.298c5.361 0 9.723 4.361 9.723 9.723v8.791c0 5.361-4.361 9.723-9.723 9.723h-21.331c-13.632 0-24.723 11.091-24.723 24.723v32.091c0 4.143 3.357 7.5 7.5 7.5s7.5-3.357 7.5-7.5v-32.091c0-5.361 4.361-9.723 9.723-9.723h21.331c13.632 0 24.723-11.091 24.723-24.723v-8.791c0-13.632-11.091-24.723-24.723-24.723-5.361 0-9.724-4.361-9.724-9.723v-34.075c0-4.143-3.357-7.5-7.5-7.5s-7.5 3.357-7.5 7.5v34.075c.001 13.632 11.092 24.723 24.724 24.723z"/><path d="m181.583 140.7c4.143 0 7.5-3.357 7.5-7.5v-44.246c0-2.756 2.241-4.997 4.996-4.997 11.026 0 19.997-8.97 19.997-19.996v-23.541c0-4.143-3.357-7.5-7.5-7.5s-7.5 3.357-7.5 7.5v23.541c0 2.755-2.241 4.996-4.997 4.996-11.026 0-19.996 8.971-19.996 19.997v44.246c0 4.143 3.357 7.5 7.5 7.5z"/><path d="m237.791 146.44v9.929c0 4.143 3.357 7.5 7.5 7.5s7.5-3.357 7.5-7.5v-9.929c0-5.96 4.849-10.809 10.809-10.809h12.962c14.23 0 25.809-11.578 25.809-25.809v-30.398c0-4.143-3.357-7.5-7.5-7.5s-7.5 3.357-7.5 7.5v30.399c0 5.96-4.849 10.809-10.809 10.809h-12.962c-14.231 0-25.809 11.578-25.809 25.808z"/></g></svg>