<svg id="icons" enable-background="new 0 0 64 64" height="512" viewBox="0 0 64 64" width="512" xmlns="http://www.w3.org/2000/svg"><path d="m19 49.003h6c.553 0 1-.447 1-1v-6.003c0-.553-.447-1-1-1h-6c-.553 0-1 .447-1 1v6.003c0 .553.447 1 1 1zm1-6.003h4v4.003h-4z"/><path d="m39 49.003h6c.553 0 1-.447 1-1v-6.003c0-.553-.447-1-1-1h-6c-.553 0-1 .447-1 1v6.003c0 .553.447 1 1 1zm1-6.003h4v4.003h-4z"/><path d="m32 39.998c2.206 0 4-1.795 4-4.001s-1.794-4.001-4-4.001-4 1.795-4 4.001 1.794 4.001 4 4.001zm0-6.002c1.103 0 2 .897 2 2.001s-.897 2.001-2 2.001-2-.897-2-2.001.897-2.001 2-2.001z"/><path d="m1 59.004h62c.553 0 1-.447 1-1s-.447-1-1-1h-1v-2c0-1.822-1.177-3-2.999-3-.535 0-1.038.141-1.474.387-.533-.833-1.467-1.387-2.527-1.387s-1.994.554-2.527 1.387c-.436-.246-.938-.387-1.474-.387-.352 0-.685.072-.999.184v-13.297l1.455.946c.033.021.069.03.104.048.031.016.062.031.096.044.113.041.229.069.345.069h.001.002c.118-.001.233-.028.345-.07.023-.009.047-.016.069-.026.101-.046.193-.106.275-.186.016-.015.026-.032.041-.048.037-.04.075-.078.106-.125.017-.025.018-.054.031-.08.032-.059.054-.119.073-.184.02-.066.034-.131.04-.198.003-.029.017-.054.017-.083v-4.001c0-.035-.017-.064-.02-.099-.008-.068-.02-.133-.04-.199-.02-.062-.044-.118-.074-.174-.03-.055-.063-.104-.104-.153-.044-.054-.092-.1-.146-.144-.027-.021-.043-.051-.072-.07l-20-13.001c-.332-.216-.758-.216-1.09 0l-20 13.001c-.029.02-.045.049-.072.07-.054.044-.102.09-.146.144-.04.049-.074.099-.104.153-.03.056-.054.112-.073.174-.021.066-.033.131-.041.199-.001.035-.018.064-.018.099v4.001c0 .029.015.054.017.083.006.067.021.132.04.198.02.064.041.125.073.184.014.026.015.055.031.08.02.029.049.045.07.072.044.054.09.102.144.146.049.04.099.073.153.104.056.03.112.054.175.074.065.021.13.033.198.04.034.003.063.02.099.02.029 0 .054-.015.083-.017.067-.006.132-.021.198-.04.065-.02.125-.041.184-.073.026-.014.055-.015.08-.031l1.455-.947v13.262c-.308-.09-.637-.148-.999-.148-.535 0-1.038.141-1.474.387-.533-.833-1.467-1.387-2.527-1.387s-1.994.554-2.527 1.387c-.436-.246-.938-.387-1.474-.387-1.653 0-2.999 1.346-2.999 3v2h-1c-.553 0-1 .447-1 1s.447.999 1 .999zm29-12.002h4v10.002h-4zm20.999 7.002c.553 0 1.002.448 1.002 1 0 .553.447 1 1 1s1-.447 1-1v-1.001c0-.551.448-.999.999-.999s.999.448.999.999v1.001c0 .553.447 1 1 1s1-.447 1-1c0-.552.449-1 1.002-1 .829 0 .999.399.999 1v2h-10v-2c0-.552.448-1 .999-1zm-18.999-30.816 19 12.352v1.614l-18.455-11.997c-.332-.216-.758-.216-1.09 0l-18.455 11.997v-1.614zm0 4 16 10.403v17.413 2h-12v-11.002c0-.553-.447-1-1-1h-6c-.553 0-1 .447-1 1v11.002h-12v-2-17.413zm-28 27.816c0-.552.448-1 .999-1 .553 0 1.002.448 1.002 1 0 .553.447 1 1 1s1-.447 1-1v-1.001c0-.551.448-.999.999-.999s.999.448.999.999v1.001c0 .553.447 1 1 1s1-.447 1-1c0-.552.449-1 1.002-1 .829 0 .999.399.999 1v2h-10z"/><path d="m3.015 41.998v1.007c0 .553.447 1 1 1s1-.447 1-1v-1.007c.553 0 1-.447 1-1s-.447-1-1-1v-1.006c0-.553-.447-1-1-1s-1 .447-1 1v1.006c-.553 0-1 .447-1 1s.447 1 1 1z"/><path d="m8.018 15.001v1.007c0 .552.447 1 1 1s1-.448 1-1v-1.007c.553 0 1-.448 1-1s-.447-1-1-1v-1.006c0-.552-.447-1-1-1s-1 .448-1 1v1.006c-.553 0-1 .448-1 1s.447 1 1 1z"/><path d="m21.056 21.999c.552 0 1-.448 1-1s-.448-1-1-1h-.011c-.552 0-.994.448-.994 1s.452 1 1.005 1z"/><path d="m5.047 29c.552 0 1-.448 1-1s-.448-1-1-1h-.011c-.552 0-.994.448-.994 1s.452 1 1.005 1z"/><path d="m29.008 9.996c1.102 0 1.997.896 1.997 1.996 0 .552.447 1 1 1h.003s.002 0 .003 0c.553 0 1-.448 1-1 0-1.101.896-1.996 1.997-1.996.553 0 1-.448 1-1s-.447-1-1-1c-1.103 0-2-.897-2-2 0-.552-.447-1-1-1s-1 .448-1 1c0 1.103-.897 2-2 2-.553 0-1 .448-1 1s.447 1 1 1zm3-1.382c.119.137.246.263.383.383-.137.119-.264.246-.383.383-.119-.137-.246-.264-.383-.383.137-.12.264-.247.383-.383z"/><path d="m59.022 41.998v1.007c0 .553.447 1 1 1s1-.447 1-1v-1.007c.553 0 1-.447 1-1s-.447-1-1-1v-1.006c0-.553-.447-1-1-1s-1 .447-1 1v1.006c-.553 0-1 .447-1 1s.448 1 1 1z"/><path d="m54.02 15.001v1.007c0 .552.447 1 1 1s1-.448 1-1v-1.007c.553 0 1-.448 1-1s-.447-1-1-1v-1.006c0-.552-.447-1-1-1s-1 .448-1 1v1.006c-.553 0-1 .448-1 1s.447 1 1 1z"/><path d="m43.042 21.999c.552 0 1-.448 1-1s-.448-1-1-1h-.011c-.552 0-.994.448-.994 1s.452 1 1.005 1z"/><path d="m59.051 29c.552 0 1-.448 1-1s-.448-1-1-1h-.011c-.552 0-.994.448-.994 1s.452 1 1.005 1z"/></svg>